<?xml version="1.0" encoding="UTF-8" standalone="no"?>

<svg
  viewBox="0 0 1024 1024"
  version="1.1"
  xmlns="http://www.w3.org/2000/svg"
>
  <path
    fill="none"
    style="stroke:#fff;stroke-width:96;stroke-linecap:square;stroke-linejoin:miter;stroke-dasharray:none;stroke-opacity:1"
    d="M 514.01562,60.472656 C 362.83466,151.18111 272.12578,181.41669 120.94489,181.41733 120.94467,483.7789 181.41733,786.14175 514.01562,967.55859 846.6142,786.14175 907.08713,483.7789 907.08664,181.41733 755.90603,181.41669 665.19687,151.18111 514.01562,60.472656 Z"
  />
  <path
    fill="#fff"
    stroke-width="96"
    d="m 290.24023,559.37109 c 2.18732,5.72368 4.45183,11.39805 6.79493,17.02149 23.52312,56.45549 54.01109,108.34002 96.03515,155.95898 V 559.37109 Z"
  />
  <path
    fill="#fff"
    stroke-width="96"
    d="m 453.54332,483.77954 -3.5e-4,307.23999 c 18.441,15.40703 38.53352,30.3088 60.47265,44.7168 21.93923,-14.40797 42.03155,-29.30969 60.47266,-44.7168 l 3.5e-4,-307.23999 z"
  />
  <path
    fill="#fff"
    stroke-width="96"
    d="m 634.96094,302.36133 v 429.99023 c 42.02514,-47.61934 72.51377,-99.50304 96.03711,-155.95898 29.43291,-70.63891 46.40563,-149.31676 55.14453,-232.77344 v -41.25781 z"
  />
</svg>
